<?xml version="1.0" encoding="UTF-8" standalone="no"?>
<!-- Created with Inkscape (http://www.inkscape.org/) -->

<svg
   width="4.139605mm"
   height="9.6267548mm"
   viewBox="0 0 4.139605 9.6267548"
   version="1.1"
   id="svg1"
   xml:space="preserve"
   xmlns="http://www.w3.org/2000/svg"
   xmlns:svg="http://www.w3.org/2000/svg"><defs
     id="defs1" /><g
     id="layer1"
     transform="translate(-153.46836,-209.32108)"><path
       style="fill:#6a5a45;fill-opacity:1;stroke:#ae9880;stroke-width:0.6;stroke-dasharray:none;stroke-opacity:1"
       d="m 155.93045,218.6477 -0.0382,2e-5 -0.0963,-0.27568 c -0.1116,-0.31849 -0.17358,-0.52488 -0.25494,-0.84893 -0.056,-0.2231 -0.14748,-0.64476 -0.15129,-0.69784 -0.001,-0.0193 -0.0283,-0.0288 -0.10627,-0.0375 -0.13694,-0.0154 -0.40218,-0.13111 -0.5269,-0.22989 -0.54954,-0.43527 -0.92541,-1.4079 -0.98131,-2.53942 -0.0295,-0.59677 0.0304,-1.04994 0.2104,-1.59208 0.0761,-0.22928 0.25826,-0.6289 0.39281,-0.86188 0.11158,-0.19317 0.36417,-0.55769 0.5133,-0.74071 0.31066,-0.38126 0.84216,-0.88476 1.22413,-1.15963 0.073,-0.0526 0.0751,-0.0532 0.11056,-0.0333 0.0433,0.0248 0.0646,0.0772 0.26745,0.6576 0.84701,2.42389 1.03249,4.34267 0.52517,5.43251 -0.16685,0.35841 -0.39779,0.62497 -0.70404,0.81263 -0.13792,0.0845 -0.4772,0.2116 -0.64845,0.2431 -0.0758,0.0139 -0.1396,0.0291 -0.1417,0.0339 -0.007,0.0156 0.0562,0.32569 0.12048,0.59243 0.0791,0.32829 0.15564,0.58728 0.27304,0.92377 0.0848,0.24325 0.0904,0.26615 0.0713,0.29222 -0.0143,0.0195 -0.0326,0.0283 -0.059,0.0283 z m 0.41738,-2.29349 c 0.77217,-0.55487 1.00349,-1.79174 0.67558,-3.61225 -0.14652,-0.81351 -0.37005,-1.62106 -0.71897,-2.59759 -0.11591,-0.32352 -0.12772,-0.35119 -0.14888,-0.34297 -0.0334,0.0129 -0.38887,0.30853 -0.55329,0.46001 -0.19405,0.17883 -0.53749,0.55414 -0.70271,0.76801 -0.60386,0.78169 -0.94913,1.64452 -0.99525,2.48714 -0.0388,0.70867 0.0994,1.53855 0.35233,2.11647 0.26426,0.60375 0.60167,0.94066 1.02339,1.02195 0.0409,0.008 0.0758,0.0115 0.0773,0.008 0.002,-0.004 -0.008,-0.084 -0.0223,-0.17899 -0.16301,-1.11998 -0.11953,-2.36534 0.12187,-3.49104 0.0556,-0.25921 0.0745,-0.2903 0.14587,-0.23932 0.0353,0.0252 0.035,0.0299 -0.02,0.2895 -0.13566,0.63966 -0.20635,1.28645 -0.21424,1.96 -0.005,0.44928 0.0402,1.10652 0.10563,1.52724 l 0.0205,0.13188 0.0358,-2.8e-4 c 0.0341,-2.6e-4 0.15937,-0.022 0.25344,-0.044 0.0238,-0.006 0.13283,-0.0473 0.24175,-0.0927 0.15773,-0.0655 0.22345,-0.10046 0.32198,-0.17131 z"
       id="path2" /></g></svg>
