<?xml version="1.0" encoding="UTF-8" standalone="no"?>
<!-- Created with Inkscape (http://www.inkscape.org/) -->

<svg
   width="100.3332mm"
   height="134.3082mm"
   viewBox="0 0 100.3332 134.3082"
   version="1.1"
   id="svg1"
   xml:space="preserve"
   xmlns="http://www.w3.org/2000/svg"
   xmlns:svg="http://www.w3.org/2000/svg"><defs
     id="defs1" /><g
     id="layer1"
     transform="translate(-57.510453,-57.377271)"><path
       style="fill:#6a5a45;fill-opacity:1"
       d="m 86.078692,157.25748 c 0,-0.33601 0.640302,-0.39688 4.175219,-0.39688 h 4.17522 l 2.196712,-0.92645 c 4.154987,-1.75236 6.392017,-3.67986 7.498397,-6.46089 0.53605,-1.34744 0.59573,-2.02138 0.6842,-7.72634 l 0.0969,-6.25015 -2.73261,-2.76373 c -1.50294,-1.52005 -3.245826,-3.22245 -3.873089,-3.78312 l -1.140479,-1.01939 -2.579081,2.56941 c -2.787295,2.77683 -3.017855,2.89831 -7.102548,3.74202 -1.510084,0.31192 -2.12486,0.5725 -2.512084,1.06477 -0.795644,1.0115 -2.434071,0.83429 -2.869257,-0.31034 -0.345118,-0.90773 0.106383,-1.83659 1.05316,-2.16664 0.611365,-0.21312 0.812643,-0.44517 0.812643,-0.93687 0,-0.35947 0.07227,-0.84191 0.160599,-1.0721 0.141747,-0.36938 -0.275531,-0.41851 -3.554651,-0.41851 -3.676432,0 -5.072614,0.22684 -5.072614,0.82418 0,0.43413 -0.825368,1.00949 -1.462483,1.01949 -0.295043,0.005 -0.807749,-0.18162 -1.139347,-0.41388 -0.920019,-0.64441 -0.69573,-1.90319 0.479781,-2.6927 0.778219,-0.52267 1.012623,-0.93333 1.51506,-2.65428 0.32692,-1.11976 0.597232,-2.16287 0.600694,-2.31802 0.0035,-0.15514 -0.707632,-0.6233 -1.580208,-1.04036 -0.872576,-0.41705 -2.386918,-1.26262 -3.365205,-1.87904 -1.416199,-0.89236 -1.879766,-1.06668 -2.274599,-0.85538 -1.218816,0.6523 -2.912939,-0.78609 -2.358659,-2.0026 0.252719,-0.55466 0.109673,-0.77711 -1.483822,-2.30753 -3.853647,-3.70111 -3.869083,-3.71279 -4.563368,-3.45107 -0.69409,0.26164 -1.810867,-0.0316 -2.149552,-0.56439 -0.363005,-0.57106 -0.220115,-1.68155 0.273896,-2.12862 0.603097,-0.5458 1.725375,-0.56708 2.161979,-0.041 0.181157,0.21828 0.442904,0.39688 0.58166,0.39688 0.212765,0 1.571118,-1.00124 3.963689,-2.92162 0.494164,-0.39664 0.475362,-0.4708 -0.67079,-2.64584 -0.648563,-1.23076 -1.388134,-2.91427 -1.643492,-3.74113 -0.356387,-1.15399 -0.607321,-1.539274 -1.079747,-1.657846 -1.606635,-0.403239 -1.67204,-2.545671 -0.0945,-3.095603 0.755982,-0.263536 0.795267,-0.350248 0.795267,-1.755345 0,-0.812962 -0.194283,-2.170534 -0.431741,-3.016825 -0.365683,-1.303285 -0.524719,-1.538712 -1.039434,-1.538712 -0.828162,0 -1.439242,-0.675682 -1.439242,-1.591396 0,-0.850708 0.814283,-1.583604 1.75946,-1.583604 0.525118,0 1.499011,0.911871 1.737263,1.626627 0.05081,0.152435 0.871013,0.339656 1.822669,0.416046 2.154382,0.172933 4.734775,-0.479658 4.734775,-1.197443 0,-0.254597 0.185345,-0.727521 0.411878,-1.050942 0.547454,-0.7816 2.086486,-0.816994 2.559941,-0.05887 0.181758,0.291042 0.510189,0.529831 0.729846,0.530643 0.963175,0.0036 2.461879,0.618266 3.57044,1.46445 0.659527,0.503428 1.227875,0.915397 1.262996,0.915485 0.03512,8.9e-5 0.04709,-0.708741 0.02661,-1.575179 -0.02747,-1.16191 -0.183707,-1.761529 -0.595312,-2.284801 -0.664824,-0.845186 -0.700583,-1.375211 -0.146184,-2.166726 0.596589,-0.851751 2.075061,-0.811923 2.653897,0.07149 0.252295,0.38505 0.36846,0.913258 0.279125,1.269197 -0.127554,0.508215 0.344227,1.113926 2.835112,3.639949 1.643471,1.666654 3.488897,3.71489 4.100946,4.551635 l 1.112817,1.521354 h 1.579154 c 1.227303,0 1.579154,0.08843 1.579154,0.396875 0,0.303705 -0.334892,0.396875 -1.426526,0.396875 -1.624355,0 -1.479786,-0.23342 -2.048359,3.307292 -0.186943,1.164167 -0.344774,4.200264 -0.350735,6.746874 -0.0097,4.14628 0.05569,4.85144 0.625656,6.74688 l 0.636495,2.11666 7.956663,8.00365 c 4.376163,4.402 8.048573,8.00365 8.160903,8.00365 0.11233,0 0.20424,-1.1635 0.20424,-2.58555 v -2.58555 l -4.973552,-4.95508 c -2.735451,-2.72529 -5.18406,-4.95507 -5.441352,-4.95507 -0.554913,0 -1.544259,-0.4895 -1.818028,-0.89951 -0.389861,-0.58387 -0.186877,-1.52148 0.45897,-2.12003 0.598444,-0.55462 0.661458,-0.81296 0.661458,-2.7118 v -2.09877 l -1.058333,-1.03344 c -0.952192,-0.92979 -1.429267,-1.90232 -0.822013,-1.67569 0.129977,0.0485 1.975446,1.73844 4.101042,3.7554 l 3.864721,3.66721 v 3.47131 3.47131 l 2.309587,2.32033 c 1.27028,1.27619 2.40137,2.32034 2.51354,2.32034 0.11218,0 0.20396,-3.06495 0.20396,-6.81099 v -6.811 l -6.276212,-6.2803 c -4.069277,-4.071925 -6.185657,-6.370844 -6.018693,-6.537808 0.166963,-0.166963 2.513448,1.966593 6.673082,6.067538 l 6.415573,6.32506 v 11.43347 c 0,6.28841 -0.0562,11.38387 -0.12487,11.32323 -0.0687,-0.0606 -1.2976,-1.2711 -2.73093,-2.68993 -2.3316,-2.30801 -2.7069,-2.57968 -3.56368,-2.57968 -0.526695,0 -1.017743,0.0973 -1.091217,0.21615 -0.07347,0.11888 1.586375,1.93304 3.688557,4.03147 l 3.82214,3.81532 v 5.57723 c 0,6.13467 -0.23549,8.01447 -1.26863,10.12676 -0.91049,1.86151 -3.24653,3.99074 -5.662873,5.16152 l -1.932043,0.93613 1.880979,0.0167 c 1.820327,0.0161 1.918887,-0.0167 3.056547,-1.0181 0.94358,-0.83057 1.83444,-1.92994 2.77419,-3.42349 0.0321,-0.051 0.18484,-0.0144 0.3395,0.0812 0.42657,0.26363 -0.37617,1.66621 -1.78587,3.12033 l -1.21837,1.25677 h 2.17287 2.17286 v -2.80017 c 0,-2.12225 0.0801,-2.77362 0.33073,-2.69049 0.2288,0.0759 0.35397,0.93892 0.40613,2.80017 l 0.0754,2.69049 h 2.0302 2.03021 l -1.07432,-1.12448 c -1.35135,-1.41445 -1.94627,-2.30186 -1.94627,-2.90314 0,-0.76387 0.34878,-0.54548 1.1472,0.71832 0.41268,0.65322 1.29265,1.66504 1.95548,2.24848 1.16814,1.02824 1.26292,1.06057 3.08613,1.05259 l 1.88098,-0.008 -2.11667,-1.10894 c -3.86083,-2.02272 -5.9671,-4.80255 -6.51604,-8.59979 -0.14186,-0.9813 -0.22985,-4.10589 -0.19553,-6.94355 l 0.0624,-5.15937 3.80689,-3.8669 c 2.94434,-2.99074 3.7077,-3.90496 3.36909,-4.0349 -1.14622,-0.43984 -1.68926,-0.13331 -4.38952,2.47784 -1.50487,1.45521 -2.75719,2.64583 -2.78293,2.64583 -0.0257,0 -0.0216,-5.1244 0.009,-11.38757 l 0.056,-11.38757 1.90119,-1.91396 1.90119,-1.91397 v -6.173405 -6.173408 l -0.66146,-0.520303 c -1.22626,-0.964575 -0.5956,-2.86885 0.94687,-2.859095 0.85817,0.0054 1.21638,0.265239 1.54029,1.117191 0.22931,0.603121 0.17043,0.83349 -0.38032,1.488018 -0.64891,0.771179 -0.65163,0.798595 -0.65163,6.550437 v 5.776015 l 1.98437,-1.97113 1.98438,-1.97113 v -7.950744 -7.950744 l 1.98437,-1.971131 1.98438,-1.971131 v -2.393713 -2.393714 l 2.24896,-2.237275 c 2.00222,-1.991818 2.65632,-2.918901 2.05052,-2.906284 -0.10914,0.0023 -0.88365,0.165377 -1.72114,0.362452 -1.37443,0.323429 -1.75443,0.585555 -3.9026,2.691997 l -2.37991,2.333677 v 2.402941 2.402941 l -2.27129,2.243117 c -1.2492,1.233715 -2.37735,2.511008 -2.50699,2.83843 -0.65443,1.652858 -0.77797,0.327085 -0.77797,-8.348619 v -8.94426 l 0.87249,-0.845652 c 0.47987,-0.465109 1.01565,-0.845652 1.19063,-0.845652 0.59334,0 0.32189,0.755041 -0.47562,1.322916 l -0.79375,0.5652 v 2.95145 2.95145 l 1.85789,-1.843653 1.85789,-1.843652 -0.15676,-1.588835 c -0.31664,-3.209368 -0.66528,-4.469322 -1.40292,-5.070062 -0.64698,-0.526904 -0.76952,-0.542168 -1.5931,-0.198437 -1.27964,0.534072 -1.55584,0.472739 -2.03385,-0.451635 -0.56846,-1.099274 -2.47325,-3.144742 -2.92847,-3.144742 -0.3022,0 -0.36318,1.905037 -0.36318,11.346653 v 11.346654 l 0.66146,0.433404 c 0.9287,0.608505 0.9287,2.085989 0,2.694494 -0.64912,0.425318 -0.66146,0.497244 -0.66146,3.855248 0,3.365308 0.0115,3.431716 0.69453,4.019256 0.86746,0.746159 0.9284,1.93398 0.13229,2.57863 -0.52334,0.423781 -0.56224,0.703991 -0.56224,4.050885 0,3.41922 -0.026,3.59561 -0.52916,3.59561 -0.29104,0 -0.52917,-0.13234 -0.52917,-0.29408 0,-0.16175 -3.12539,-3.44065 -6.945313,-7.286449 -4.120906,-4.148823 -7.445314,-7.732852 -8.174832,-8.813248 -1.441899,-2.13541 -2.635748,-5.092683 -3.288668,-8.146328 l -0.466722,-2.182813 h -1.410149 c -1.077078,0 -1.41015,-0.09374 -1.41015,-0.396875 0,-0.299861 0.32338,-0.396875 1.322917,-0.396875 h 1.322917 v -2.768816 c 0,-2.492545 -0.05249,-2.796907 -0.526043,-3.050345 -1.083508,-0.579876 -0.984291,-2.488752 0.151808,-2.920697 0.880993,-0.334952 1.841595,0.08186 2.272533,0.986076 0.305287,0.640565 0.589321,0.783746 2.072013,1.044495 0.945027,0.166194 2.736159,0.315022 3.980294,0.330729 l 2.262064,0.02856 0.323023,-2.905017 c 0.31014,-2.789164 0.301704,-2.926336 -0.211543,-3.439583 -0.538028,-0.538028 -0.692576,-1.476415 -0.332077,-2.016311 0.71831,-1.07577 2.465654,-0.926969 3.00459,0.255867 0.200828,0.440754 0.586768,0.687759 1.253518,0.802242 0.8427,0.144694 1.02964,0.07388 1.49253,-0.565372 0.29104,-0.401931 1.02679,-1.213589 1.63499,-1.803684 0.81142,-0.787255 1.04143,-1.174685 0.86395,-1.455209 -0.70803,-1.119098 0.087,-2.631266 1.38349,-2.631266 1.04385,0 1.64236,0.850717 1.44904,2.059646 -0.15029,0.939911 -0.0759,1.09958 1.0078,2.16316 0.64354,0.631588 1.31062,1.487646 1.4824,1.902351 0.17178,0.414705 0.32764,0.752217 0.34637,0.750026 0.66904,-0.07828 2.09313,-0.877788 2.74411,-1.540584 0.66089,-0.67289 0.99517,-0.832796 1.45521,-0.696112 1.29373,0.384388 1.73132,2.144207 0.71089,2.858943 -0.50813,0.355909 -0.52728,0.494589 -0.26458,1.915679 0.15576,0.842597 0.2832,1.976639 0.2832,2.520095 0,1.733956 0.11134,1.825129 2.22868,1.825129 1.65708,0 3.61748,-0.232657 5.61342,-0.666192 0.31349,-0.06809 0.6353,-0.398866 0.72126,-0.741353 0.2234,-0.890098 1.33473,-1.341495 2.23992,-0.909808 0.54588,0.26033 0.72452,0.557824 0.78727,1.311103 0.0668,0.80146 -0.0389,1.053023 -0.59532,1.417613 -0.6537,0.428323 -0.67648,0.53576 -0.67648,3.190942 v 2.747695 h 1.32292 c 0.97831,0 1.32292,0.09978 1.32292,0.383048 0,0.27427 -0.38609,0.405759 -1.35957,0.463021 l -1.35956,0.07997 -0.63186,2.645833 c -0.38699,1.620462 -1.14894,3.707713 -1.96613,5.38587 -1.16814,2.39887 -1.66129,3.074217 -3.96073,5.423959 l -2.62647,2.683921 -9.6e-4,2.769843 -9.7e-4,2.769841 1.52902,-1.51307 c 1.31132,-1.297637 2.43973,-1.920645 2.43973,-1.347007 0,0.09134 -2.80607,2.919067 -6.2357,6.283857 l -6.2357,6.11779 -0.0482,6.94532 c -0.0265,3.81993 0.0139,6.94532 0.0897,6.94532 0.0758,-1e-5 1.17712,-1.04417 2.44739,-2.32036 l 2.30959,-2.32033 0.0385,-3.43435 0.0385,-3.43435 3.90498,-3.80154 c 2.44929,-2.3844 4.02225,-3.72905 4.21956,-3.60711 0.21328,0.13182 -0.0519,0.56784 -0.82341,1.35397 l -1.138,1.15953 0.0771,3.39636 0.0771,3.39635 -5.56008,5.40122 -5.56009,5.40122 -0.0845,2.71217 c -0.0465,1.49169 -0.0433,2.71208 0.007,2.71198 0.34981,-7.4e-4 15.61798,-15.31647 15.99722,-16.04707 0.26308,-0.50681 0.70956,-1.82561 0.99219,-2.93066 0.6505,-2.54344 0.66149,-8.63895 0.0233,-12.904757 l -0.43544,-2.910417 -1.43467,-0.132292 c -2.11953,-0.195444 -2.10183,-0.793264 0.0236,-0.795557 1.6416,-0.0018 1.68906,-0.02196 2.33303,-0.992188 0.36154,-0.544709 2.20497,-2.575236 4.09652,-4.512284 3.05433,-3.127803 3.42981,-3.611248 3.35543,-4.320339 -0.15767,-1.503109 1.67368,-2.445321 2.71973,-1.399274 0.58423,0.584225 0.52368,1.878259 -0.11339,2.423742 -0.43375,0.371386 -0.52917,0.780504 -0.52917,2.268854 v 1.815769 l 1.21149,-1.066392 c 0.87341,-0.768808 1.60349,-1.147772 2.61624,-1.358018 0.77262,-0.160395 1.61512,-0.524075 1.87223,-0.808178 0.88813,-0.981376 2.76671,-0.365634 2.76671,0.906846 0,0.518955 1.25236,1.120283 2.87283,1.379408 1.55236,0.248231 4.00633,-0.102676 4.00633,-0.572885 0,-0.588061 0.99139,-1.43617 1.67879,-1.43617 1.23021,0 2.04244,1.801155 1.24534,2.761604 -0.17436,0.210091 -0.63217,0.418817 -1.01735,0.463836 -0.59509,0.06955 -0.76868,0.300541 -1.1551,1.53706 -0.54119,1.73176 -0.61909,3.83698 -0.15636,4.225781 0.1819,0.152842 0.65815,0.523365 1.05833,0.823385 0.44411,0.332951 0.7276,0.795733 0.7276,1.187746 0,0.69861 -0.83849,1.700588 -1.42311,1.700588 -0.20062,0 -0.48634,0.327422 -0.63493,0.727602 -1.0253,2.76144 -1.50605,3.83937 -2.30056,5.1583 l -0.90185,1.49712 1.63804,1.38736 c 0.90092,0.76305 1.8466,1.56129 2.10151,1.77387 0.40907,0.34113 0.56746,0.33051 1.34919,-0.0905 1.10459,-0.59486 2.19172,-0.37207 2.60443,0.53374 0.60718,1.33262 -0.74413,2.72609 -2.13519,2.20181 -0.79505,-0.29965 -1.22852,0.0242 -5.63051,4.20685 -3.77674,3.58854 -4.88993,4.41872 -7.97632,5.94846 -1.19285,0.59122 -2.20703,1.10555 -2.25372,1.14294 -0.0467,0.0374 0.16937,0.9426 0.48013,2.01156 0.31077,1.06897 0.62173,2.14198 0.69102,2.38448 0.0693,0.2425 0.479,0.56397 0.91045,0.71437 0.96685,0.33705 1.44577,1.40082 1.00644,2.23549 -0.67829,1.28863 -1.76343,1.30617 -3.02078,0.0488 l -0.92604,-0.92604 h -3.9068 -3.90681 l 0.11137,0.95397 c 0.087,0.74541 0.30717,1.06949 1.00699,1.48239 1.08635,0.64096 1.3768,1.55384 0.78283,2.46036 -0.6022,0.91907 -2.08525,0.92597 -2.6838,0.0125 -0.3123,-0.47664 -0.81912,-0.72418 -1.92432,-0.93989 -0.8252,-0.16105 -2.33323,-0.53701 -3.35117,-0.83546 -1.72299,-0.50517 -2.02895,-0.71767 -4.43045,-3.07709 l -2.57964,-2.53445 -2.30174,2.23104 c -1.26596,1.22707 -2.96319,2.89578 -3.77164,3.70824 l -1.46989,1.47721 0.038,6.19571 c 0.0344,5.59944 0.0916,6.33697 0.59431,7.66358 1.15845,3.05675 3.02744,4.7287 7.38701,6.60821 l 2.44022,1.05204 h 4.09678 c 3.4652,0 4.09678,0.0612 4.09678,0.39688 0,0.34934 -2.44004,0.39687 -20.37291,0.39687 -17.932874,0 -20.37292,-0.0475 -20.37292,-0.39687 z m -1.879916,-22.45605 c 0.397396,-0.47883 0.09465,-1.22416 -0.497245,-1.22416 -0.732717,0 -1.203232,0.70215 -0.797839,1.19062 0.410531,0.49466 0.901827,0.50738 1.295084,0.0335 z m 45.909294,-0.0671 c 0.18198,-0.47422 -0.26035,-1.15709 -0.74948,-1.15709 -0.59069,0 -0.93855,0.57893 -0.66029,1.09886 0.32316,0.60384 1.18672,0.6395 1.40977,0.0582 z m -42.657613,-1.29502 c 3.72566,-0.77479 4.142502,-0.99949 6.79461,-3.66267 1.587803,-1.59444 2.338262,-2.52239 2.10991,-2.60893 -0.194926,-0.0739 -1.676281,-0.12047 -3.291899,-0.10354 l -2.937489,0.0308 -1.617983,1.5875 c -1.113843,1.09285 -1.885214,1.62872 -2.475632,1.71979 -0.749771,0.11565 -0.900261,0.27982 -1.196429,1.30516 -0.296368,1.02604 -0.28431,1.23306 0.09632,1.65365 0.239303,0.26442 0.46839,0.48077 0.509083,0.48077 0.04069,0 0.944974,-0.18113 2.009514,-0.40251 z m 40.645913,-0.1432 c 0.18745,-0.30015 0.28668,-0.74663 0.22053,-0.99219 -0.0661,-0.24556 -0.19314,-0.7739 -0.2822,-1.17408 -0.13546,-0.60866 -0.3005,-0.7276 -1.00966,-0.7276 -0.684,0 -1.16463,-0.31408 -2.48845,-1.62613 l -1.64072,-1.62613 -3.15937,-0.12612 c -1.95051,-0.0779 -3.22163,-0.0254 -3.32207,0.13713 -0.21342,0.34531 4.6209,5.0164 5.57304,5.38487 0.79364,0.30713 4.71346,1.23706 5.36872,1.27366 0.21966,0.0123 0.55274,-0.22327 0.74018,-0.52341 z m -53.527053,-2.62929 c 0,-0.48491 -0.15921,-0.68406 -0.596495,-0.74616 -0.65011,-0.0923 -1.019349,0.47509 -0.755912,1.16159 0.09562,0.24919 0.398121,0.38154 0.755912,0.33073 0.437285,-0.0621 0.596495,-0.26125 0.596495,-0.74616 z m 65.087503,-0.004 c 0,-0.48115 -0.16022,-0.68059 -0.5965,-0.74254 -0.71981,-0.10221 -1.06222,0.57902 -0.58192,1.15775 0.49573,0.59731 1.17842,0.35677 1.17842,-0.41521 z m -51.996906,-2.26222 1.184348,-1.16815 -1.426562,-1.44451 c -1.012312,-1.02504 -1.663549,-1.46763 -2.242681,-1.52415 -1.116791,-0.10898 -1.031499,-0.59069 0.121763,-0.68769 0.825677,-0.0694 1.119203,0.0967 2.453483,1.38907 l 1.5156,1.46794 h 5.020997 c 2.761548,0 5.020996,-0.0995 5.020996,-0.22118 0,-0.12164 -0.821861,-1.01461 -1.826358,-1.98437 l -1.826357,-1.7632 h -3.783442 -3.783442 l -0.888232,-0.8599 -0.888231,-0.85989 -4.579149,-0.0113 -4.579149,-0.0113 -2.969372,-2.79516 -2.969372,-2.79515 -3.217361,-0.14824 c -1.769548,-0.0815 -3.269223,-0.0964 -3.33261,-0.033 -0.06339,0.0634 0.347663,0.58931 0.913443,1.16873 0.714749,0.73196 1.254547,1.05347 1.768746,1.05347 0.861401,0 1.798387,0.82625 1.798387,1.58584 0,0.6822 1.460058,1.73198 4.782524,3.43861 1.444195,0.74183 2.625809,1.38761 2.625809,1.43505 0,0.0474 -0.356188,1.28524 -0.791529,2.75066 -0.435342,1.46541 -0.731722,2.82035 -0.658623,3.01097 0.105251,0.27446 1.302262,0.32872 5.752467,0.26075 l 5.61956,-0.0858 z m -10.047889,-0.37999 c -1.426354,-1.42636 0.328191,-3.62305 2.012392,-2.51952 0.857856,0.56209 0.883473,2.0498 0.0454,2.63681 -0.791443,0.55435 -1.422104,0.5184 -2.057795,-0.11729 z m 1.852083,-1.03373 c 0,-0.71252 -0.533447,-1.09927 -1.098866,-0.79666 -0.610347,0.32665 -0.630291,0.93107 -0.04159,1.26052 0.583939,0.32679 1.140459,0.10044 1.140459,-0.46386 z m 58.384862,2.46907 c 0.0879,-0.2292 0.009,-0.91381 -0.17463,-1.52135 -0.184,-0.60754 -0.5491,-1.84931 -0.81135,-2.75948 l -0.47681,-1.65487 2.16448,-1.03669 c 3.12906,-1.49867 5.16675,-2.89724 7.57874,-5.20164 1.16951,-1.11734 2.12662,-2.10502 2.12693,-2.19485 3.1e-4,-0.0898 -1.46681,-0.10381 -3.26027,-0.031 l -3.26083,0.13229 -2.94269,2.77812 -2.94269,2.77813 -4.52759,0.0287 -4.52759,0.0287 -0.85756,0.83118 -0.85757,0.83119 h -3.76001 -3.76002 l -1.65135,1.51061 c -2.16046,1.97634 -2.3128,2.12829 -2.3128,2.30695 0,0.0832 2.29602,0.15119 5.10226,0.15119 h 5.10227 l 1.43713,-1.45521 c 1.29217,-1.30842 1.55012,-1.45521 2.55726,-1.45521 0.96085,0 1.29555,0.16572 2.35391,1.16547 1.3693,1.29349 2.25991,1.60423 2.86465,0.99949 0.49032,-0.49032 1.83739,-0.52405 2.39654,-0.06 0.22604,0.18759 0.41098,0.74047 0.41098,1.22862 0,1.78456 -2.21123,2.24306 -3.04469,0.63133 -0.30407,-0.58801 -0.59556,-0.78992 -1.14035,-0.78992 -0.5179,0 -1.0735,-0.34809 -1.90038,-1.19062 -1.6173,-1.64792 -2.25703,-1.60958 -4.19045,0.25109 l -1.49809,1.44172 1.17424,1.19869 1.17424,1.19868 5.17576,0.0775 c 2.84667,0.0426 5.38785,0.1046 5.64708,0.13772 0.25923,0.0331 0.54329,-0.12731 0.63125,-0.35652 z m -2.97804,-2.30602 c 0.41335,-0.6553 -0.43497,-1.47934 -1.02167,-0.99243 -0.49276,0.40896 -0.52346,0.85022 -0.0893,1.28433 0.38923,0.38923 0.73941,0.29723 1.11102,-0.2919 z m -5.65021,-9.84495 4.7872,-4.6302 h 2.25259 2.25259 l 1.36106,-1.19063 1.36107,-1.19062 4.63475,-0.008 4.63475,-0.008 -0.67357,-0.58695 c -0.37046,-0.32282 -1.22749,-1.0632 -1.90451,-1.64528 l -1.23094,-1.05834 1.18177,-1.98437 c 1.05112,-1.76501 1.77766,-3.38279 2.34676,-5.225522 0.26068,-0.844051 -0.13579,-0.761843 -2.23305,0.463022 -1.75587,1.02548 -1.88722,1.05833 -4.23195,1.05833 h -2.41983 l -2.69338,2.63928 -2.69338,2.63929 1.67978,0.007 c 1.52931,0.006 1.74621,-0.0646 2.42126,-0.7872 0.86232,-0.92311 1.63668,-1.00915 2.38125,-0.26458 0.63569,0.63569 0.67164,1.26635 0.11729,2.05779 -0.48714,0.69548 -1.98489,0.81008 -2.49854,0.19116 -0.24734,-0.29802 -0.89792,-0.39476 -2.61208,-0.38839 l -2.28271,0.008 -2.95499,2.87318 c -2.68579,2.61145 -3.11964,2.92778 -4.7625,3.4725 -1.69482,0.56194 -2.03567,0.82354 -5.46716,4.19594 l -3.65966,3.59663 2.86591,0.14613 c 1.57624,0.0804 2.953,0.16968 3.05946,0.19844 0.10646,0.0288 2.3478,-2.03129 4.98076,-4.57791 z m -34.860652,3.99206 c -0.116372,-0.20546 -1.729248,-1.82334 -3.584169,-3.5953 -2.936791,-2.80543 -3.607238,-3.31272 -5.188571,-3.92591 -1.549367,-0.60079 -2.253684,-1.12177 -4.79719,-3.54845 l -2.981202,-2.84427 h -2.315017 c -1.735014,0 -2.397539,0.0994 -2.644394,0.39687 -0.430852,0.51915 -1.702794,0.50837 -2.230059,-0.0189 -0.916709,-0.9167 -0.195227,-2.75922 1.080441,-2.75922 0.624418,0 1.678785,0.83086 1.678785,1.32292 0,0.15058 0.769491,0.26315 1.785937,0.26126 l 1.785938,-0.003 -2.671182,-2.64252 -2.671181,-2.64252 H 69.21123 c -2.381595,0 -2.409441,-0.008 -4.340277,-1.2 -2.133495,-1.317442 -2.389949,-1.230709 -1.794278,0.60683 0.399454,1.23225 1.989017,4.44322 2.692441,5.43883 l 0.526094,0.74463 -0.625447,0.66614 c -0.343995,0.36637 -1.190993,1.09756 -1.882217,1.62485 -0.691224,0.52729 -1.256821,1.02354 -1.256882,1.10278 -6.2e-5,0.0792 2.076184,0.10266 4.613879,0.052 l 4.613991,-0.092 1.300538,1.2165 1.300539,1.21651 2.353811,0.013 2.353811,0.013 4.630209,4.47959 4.630208,4.47959 3.122001,0.005 c 2.613066,0.004 3.08751,-0.0556 2.910417,-0.36827 z m -9.340001,-1.50815 c 1.6e-4,-0.0891 -1.426644,-1.54757 -3.170675,-3.24115 l -3.170967,-3.07921 h -2.323682 -2.323682 l -1.368226,-1.1969 -1.368226,-1.19689 -4.858901,0.0246 c -2.672395,0.0135 -5.031211,0.13453 -5.241812,0.26897 -0.303651,0.19382 -0.08169,0.51627 1.072296,1.55776 l 1.455208,1.31335 3.954813,0.0115 3.954812,0.0115 2.924354,2.8764 2.924354,2.8764 3.770022,-0.0321 c 2.073512,-0.0177 3.770152,-0.105 3.770312,-0.19406 z m 53.434483,-2.6162 3.10984,-2.91041 h 3.8907 3.89069 l 1.45812,-1.37903 c 1.24865,-1.18092 1.38891,-1.4063 0.97635,-1.5689 -0.26497,-0.10444 -2.67208,-0.19825 -5.34912,-0.20848 l -4.86735,-0.0186 -1.27288,1.19062 -1.27287,1.19063 -2.32644,0.007 -2.32644,0.007 -3.24115,3.06109 c -1.78263,1.6836 -3.24114,3.16883 -3.24114,3.30051 0,0.13167 1.67891,0.23941 3.73092,0.23941 h 3.73092 z m -70.25862,2.03974 c 0.21011,-0.33309 0.170846,-0.55046 -0.159019,-0.88033 -0.575889,-0.57589 -1.272802,-0.28567 -1.272802,0.53003 0,0.98438 0.893901,1.20308 1.431821,0.3503 z m 28.608243,-8.90527 -2.258815,-2.25881 v 1.88803 c 0,1.4474 0.09411,1.92414 0.403232,2.04276 0.545454,0.20932 0.897357,1.23704 0.645871,1.88626 -0.165381,0.42693 0.135188,0.87578 1.55577,2.32328 l 1.760752,1.79411 0.076,-2.7084 0.076,-2.70841 z m 21.534607,3.43541 c 0.11189,-0.22349 0.14722,-1.57966 0.0785,-3.01373 l -0.12495,-2.60739 -2.21619,2.20468 -2.21619,2.20467 v 2.73928 2.73928 l 2.1377,-1.93023 c 1.17573,-1.06163 2.22924,-2.11308 2.34114,-2.33656 z M 94.758108,113.2367 c -0.09557,-0.82413 -0.921852,-0.95354 -1.374539,-0.21529 -0.233568,0.38091 -0.193728,0.5526 0.195319,0.84172 0.695833,0.51711 1.276087,0.20886 1.17922,-0.62643 z m -7.753086,-1.6646 c -0.243094,-1.06679 -0.5212,-2.12633 -0.618014,-2.35453 -0.09681,-0.22821 -3.710711,-3.77032 -8.030882,-7.87136 l -7.854858,-7.456441 h -2.007545 -2.007545 l -1.779264,-1.626647 c -0.978595,-0.894656 -1.942375,-1.81739 -2.141735,-2.050521 -0.312572,-0.365522 -0.333854,-0.27818 -0.154595,0.634459 0.114331,0.582084 0.233166,2.109432 0.264078,3.394108 0.0312,1.296429 0.188284,2.467855 0.353034,2.632604 0.163256,0.163257 0.297278,0.540908 0.297826,0.839226 7.18e-4,0.39121 0.532675,0.858841 1.908457,1.677679 1.794686,1.068163 2.009717,1.130733 3.637024,1.058333 l 1.729564,-0.0769 -1.521354,-1.476453 c -1.434547,-1.392208 -1.856817,-2.095422 -1.258271,-2.095422 0.144697,0 3.846428,3.482575 8.22607,7.739065 7.103866,6.9041 8.138809,7.81238 9.592645,8.41865 0.896313,0.37378 1.669641,0.6513 1.718507,0.61671 0.04887,-0.0346 -0.110048,-0.93571 -0.353142,-2.00251 z m 40.773798,1.25454 c 0.60521,-0.13021 2.77381,-2.07513 8.22215,-7.37405 9.30001,-9.044965 8.97468,-8.748607 9.34957,-8.51691 0.20696,0.127911 -0.25306,0.764201 -1.35992,1.880986 l -1.67268,1.687684 h 1.82905 c 1.66396,0 1.99163,-0.0966 3.63037,-1.070147 1.1403,-0.677438 1.80133,-1.241443 1.80133,-1.53693 0,-0.25673 0.17494,-0.697897 0.38876,-0.980372 0.28947,-0.382413 0.3489,-0.924414 0.23268,-2.122056 -0.10767,-1.109536 -0.0231,-2.065984 0.27269,-3.08343 0.23583,-0.81123 0.42879,-1.556149 0.42879,-1.655376 0,-0.09923 -0.98227,0.729779 -2.18282,1.842234 l -2.18281,2.022647 -1.89987,-0.106952 -1.89987,-0.106952 -3.2595,3.044479 c -1.79273,1.674464 -5.40263,5.079095 -8.02201,7.565855 l -4.7625,4.52138 -0.58104,2.11666 c -0.77764,2.83285 -0.77551,2.8765 0.11802,2.41991 0.40018,-0.20449 1.09751,-0.45139 1.54961,-0.54866 z m -67.988265,-1.34545 c 0.181715,-0.47354 -0.342698,-1.18725 -0.872355,-1.18725 -0.450485,0 -0.734678,0.64441 -0.525077,1.19062 0.19799,0.51596 1.199075,0.51354 1.397432,-0.003 z m 94.923765,-0.0302 c 0.18531,-0.48291 -0.26333,-1.15708 -0.77001,-1.15708 -0.18264,0 -0.4803,0.17859 -0.66145,0.39687 -0.26278,0.31663 -0.26278,0.47712 0,0.79375 0.43532,0.52453 1.22441,0.50604 1.43146,-0.0335 z m -68.301428,-7.60976 0.09952,-3.14538 -2.201237,-2.313123 -2.201237,-2.313124 v -3.54561 -3.545611 l -1.56122,-1.544929 c -0.86799,-0.858933 -1.690372,-1.465108 -1.852083,-1.365165 -0.199731,0.123441 -0.290864,2.403021 -0.290864,7.275588 v 7.095824 l 1.719792,1.50989 1.719791,1.5099 v -1.74217 c 0,-1.3722 0.08428,-1.742165 0.396875,-1.742165 0.321328,0 0.396875,0.423715 0.396875,2.225885 v 2.22589 l 1.785938,1.60012 c 0.982265,0.88007 1.808974,1.456 1.83713,1.27984 0.02816,-0.17615 0.09598,-1.7357 0.150716,-3.46566 z m -13.983984,3.11185 c 0.191651,-0.49944 -0.26913,-1.15709 -0.810708,-1.15709 -0.450486,0 -0.734679,0.64441 -0.525078,1.19062 0.203462,0.53022 1.128365,0.507 1.335786,-0.0335 z m 56.222222,-1.04367 1.59219,-1.47409 0.0765,-2.14264 c 0.0491,-1.37452 0.19062,-2.1804 0.39477,-2.24797 0.22168,-0.07336 0.3421,0.4282 0.39688,1.65301 l 0.0786,1.75833 1.65364,-1.49807 1.65365,-1.49806 v -7.253839 c 0,-5.721201 -0.0716,-7.253842 -0.33901,-7.253842 -0.18646,0 -1.01989,0.688062 -1.85208,1.529026 l -1.51308,1.529027 v 3.521867 3.521867 l -2.11426,2.291294 -2.11426,2.29129 -0.002,3.37344 c -10e-4,1.93833 0.10373,3.37344 0.24709,3.37344 0.13723,0 0.96599,-0.66334 1.84169,-1.47408 z m 13.36319,1.04367 c 0.19165,-0.49944 -0.26913,-1.15709 -0.81071,-1.15709 -0.45048,0 -0.73467,0.64441 -0.52507,1.19062 0.20346,0.53022 1.12836,0.507 1.33578,-0.0335 z m -35.83135,-6.683 c 0.004,-2.029319 -0.0524,-2.270925 -0.6574,-2.831639 -0.42465,-0.393553 -0.66146,-0.899527 -0.66146,-1.413303 0,-0.561673 0.19722,-0.929507 0.66146,-1.233688 0.65055,-0.426257 0.66145,-0.4913 0.66145,-3.94442 0,-3.45312 -0.0109,-3.518162 -0.66145,-3.944419 -0.84608,-0.554373 -0.92755,-2.056906 -0.14139,-2.607558 0.50135,-0.351156 0.52279,-0.77576 0.59532,-11.789022 0.0414,-6.28361 0.003,-11.424719 -0.0848,-11.424686 -0.32901,1.24e-4 -2.82132,2.829583 -3.00659,3.413298 -0.15879,0.500314 -0.31627,0.576572 -0.89429,0.433054 -1.99166,-0.494508 -2.158312,-0.48232 -2.794732,0.204388 -0.679415,0.733101 -1.214127,3.098687 -1.214127,5.371345 0,1.259728 0.06459,1.372905 1.719792,3.013392 l 1.719787,1.704505 v -2.919418 c 0,-2.89984 -0.005,-2.924529 -0.79549,-3.68155 -0.53278,-0.510437 -0.707709,-0.849916 -0.52968,-1.027944 0.17803,-0.178028 0.57181,0.03077 1.19237,0.632241 l 0.92655,0.898054 v 8.81164 c 0,7.656179 -0.052,8.811639 -0.39687,8.811639 -0.21828,0 -0.39688,-0.151311 -0.39688,-0.336246 0,-0.184935 -1.07156,-1.402843 -2.381245,-2.706463 l -2.38125,-2.370217 v -2.40417 -2.404171 l -2.447396,-2.396403 c -1.73187,-1.695786 -2.698797,-2.4449 -3.307292,-2.562283 -0.472942,-0.09123 -1.217083,-0.234872 -1.653645,-0.319195 -1.302993,-0.251675 -0.972488,0.384063 1.455208,2.799148 l 2.248958,2.237275 v 2.419601 2.419601 l 1.984375,1.884962 1.984375,1.884962 v 4.703319 4.703319 l 2.116667,2.104252 2.116665,2.104253 v -4.293272 c 0,-3.639853 0.0604,-4.293272 0.39688,-4.293272 0.33785,0 0.39687,0.697514 0.39687,4.690132 v 4.690132 l 1.90606,1.918867 c 1.31506,1.3239 1.97011,1.81806 2.11262,1.59373 0.1136,-0.17884 0.20837,-1.32353 0.2106,-2.54377 z M 74.516375,92.765781 c -3.82507,-3.850468 -4.297866,-4.093407 -6.781744,-3.484701 -1.164237,0.285311 -2.325241,0.39149 -3.24393,0.296673 -0.786918,-0.08122 -1.421781,-0.06697 -1.410809,0.03165 0.01097,0.09863 0.894794,0.923462 1.964049,1.832967 l 1.9441,1.653646 1.938555,0.0098 1.938554,0.0098 3.307292,3.13845 3.307291,3.13845 0.07935,-1.742012 0.07935,-1.742012 z m 12.564811,4.508809 c 0.313426,-2.150412 0.309759,-2.18114 -0.378833,-3.174779 -0.84537,-1.219869 -3.257978,-4.012673 -3.571823,-4.134695 -0.124761,-0.04851 -0.226838,1.258193 -0.226838,2.903777 v 2.991971 l 1.778841,1.792577 c 0.978363,0.985918 1.847089,1.792578 1.930503,1.792578 0.08341,0 0.294081,-0.977143 0.46815,-2.171429 z m 42.906414,-4.436059 -0.0119,-3.049804 -1.4709,1.5875 c -0.80899,0.873125 -1.80888,2.07536 -2.22198,2.671633 l -0.75109,1.084133 0.3726,2.090867 c 0.20493,1.149977 0.37675,2.147205 0.38183,2.216063 0.005,0.06886 0.84266,-0.701856 1.86131,-1.712696 l 1.85208,-1.837891 z m 10.19129,2.129552 1.84498,-1.872064 2.12377,-0.01267 2.12376,-0.01267 1.98437,-1.840899 1.98438,-1.840899 -1.65785,0.171909 c -1.20236,0.124677 -2.12766,0.04474 -3.36779,-0.29095 -1.27439,-0.344961 -1.89671,-0.3954 -2.44319,-0.19802 -0.40329,0.14566 -2.2513,1.720182 -4.10669,3.498938 l -3.37344,3.2341 v 1.84676 1.84676 l 1.52135,-1.329115 c 0.83675,-0.731013 2.3516,-2.171544 3.36635,-3.201179 z M 62.370125,98.04146 c 0.234079,-0.382366 0.190975,-0.554249 -0.214517,-0.855412 -0.585975,-0.43521 -1.212332,-0.09382 -1.212332,0.66077 0,0.933199 0.899589,1.055915 1.426849,0.194642 z m 89.561985,0.247469 c 0.65699,-0.791622 -0.428,-1.788869 -1.15514,-1.061728 -0.48763,0.487633 -0.50361,0.690987 -0.087,1.107568 0.41849,0.418486 0.87066,0.401799 1.24217,-0.04584 z m -44.99433,-1.456571 c 0.53054,-0.336288 0.27899,-1.487381 -0.32504,-1.487381 -0.72585,0 -1.14689,0.772763 -0.70871,1.300739 0.39531,0.476312 0.53653,0.501809 1.03375,0.186642 z M 77.059353,90.02829 c -0.951756,-1.013098 -2.430739,-1.911773 -3.450734,-2.096771 -0.814112,-0.147657 -1.026244,-0.08066 -1.390277,0.439068 -0.422729,0.60353 -0.384199,0.658857 2.415906,3.469144 l 2.845485,2.855833 0.07793,-2.026944 c 0.06842,-1.779628 0.0076,-2.101785 -0.498314,-2.64033 z m 63.623527,-1.712339 c -0.49909,-0.49909 -0.66185,-0.5232 -1.68046,-0.248917 -0.69783,0.187905 -1.62034,0.764367 -2.41954,1.511923 l -1.29169,1.208224 v 2.012845 2.012845 l 2.97215,-2.972153 2.97216,-2.972153 z M 92.300148,84.777119 c -2.112114,-2.174301 -3.840206,-3.832265 -3.840206,-3.684363 0,0.51689 1.252452,3.944892 1.928956,5.279614 0.967273,1.908401 2.378915,3.729303 4.114202,5.306984 l 1.497466,1.361461 0.06989,-2.155211 0.06989,-2.15521 z m 27.482162,5.63743 c 0.80169,-0.885892 1.94741,-2.552159 2.54605,-3.702816 1.02758,-1.975151 2.11491,-4.731644 2.11491,-5.361525 0,-0.157237 -1.7264,1.43744 -3.83645,3.543727 l -3.83646,3.829614 v 2.204252 2.204251 l 0.77717,-0.553396 c 0.42744,-0.304367 1.4331,-1.278215 2.23478,-2.164107 z m -7.64216,1.09397 c 0,-0.484909 -0.15921,-0.684067 -0.5965,-0.746161 -0.35779,-0.05081 -0.66029,0.08154 -0.75591,0.330729 -0.26343,0.686506 0.1058,1.253909 0.75591,1.161593 0.43729,-0.06209 0.5965,-0.261252 0.5965,-0.746161 z m -50.799999,-3.175 c 0,-0.484909 -0.15921,-0.684067 -0.596496,-0.746161 -0.650109,-0.09232 -1.019349,0.475086 -0.755911,1.161593 0.09562,0.249185 0.398121,0.381536 0.755911,0.330729 0.437286,-0.06209 0.596496,-0.261252 0.596496,-0.746161 z m 91.634089,0.170333 c 0.12824,-0.672456 -0.3186,-1.052599 -0.98767,-0.840245 -0.53857,0.170938 -0.75006,0.916622 -0.36825,1.298434 0.34671,0.346708 1.26136,0.03763 1.35592,-0.458189 z M 71.526609,87.936644 c 0.26278,-0.316631 0.26278,-0.477119 0,-0.79375 -0.693178,-0.835228 -1.804977,-0.213141 -1.418597,0.79375 0.08376,0.218281 0.363103,0.396875 0.620757,0.396875 0.257655,0 0.616682,-0.178594 0.79784,-0.396875 z m 71.305211,-0.396875 c 0,-0.484909 -0.15921,-0.684066 -0.5965,-0.746161 -0.35779,-0.05081 -0.66029,0.08154 -0.75591,0.330729 -0.26344,0.686506 0.1058,1.253909 0.75591,1.161593 0.43729,-0.06209 0.5965,-0.261252 0.5965,-0.746161 z M 96.132858,86.276376 c 0,-0.891362 -0.21347,-1.210854 -1.984375,-2.969941 l -1.984375,-1.971131 v -2.393713 -2.393713 l -2.278078,-2.243117 -2.278079,-2.243117 0.130855,3.511924 0.130854,3.511923 3.933162,4.071643 c 2.163238,2.239404 4.022458,4.082085 4.131599,4.094848 0.10914,0.01276 0.198437,-0.426261 0.198437,-0.975606 z m 24.719852,-2.779409 c 2.78536,-2.727283 3.93178,-4.033119 4.1215,-4.694608 0.29898,-1.042502 0.36136,-6.34384 0.0746,-6.34384 -0.1035,0 -1.11553,0.956451 -2.24896,2.125447 l -2.06078,2.125446 v 2.345127 2.345127 l -1.98438,1.924141 c -1.78929,1.734976 -1.98437,2.023791 -1.98437,2.93776 0,0.55749 0.0503,1.013618 0.11183,1.013618 0.0615,0 1.84824,-1.700198 3.97052,-3.778218 z m -13.76303,2.378373 c 0.41335,-0.655304 -0.43497,-1.479344 -1.02167,-0.992425 -0.49276,0.408957 -0.52346,0.850214 -0.0893,1.284328 0.38922,0.389227 0.7394,0.297223 1.11101,-0.291903 z M 78.90711,84.795179 c 0.438021,-0.527783 0.07035,-1.22416 -0.646319,-1.22416 -0.74535,0 -1.004956,0.352892 -0.780306,1.060701 0.192368,0.606097 0.983992,0.696799 1.426625,0.163459 z m 56.51637,-0.43041 c 0,-0.484909 -0.15921,-0.684066 -0.59649,-0.746161 -0.35779,-0.05081 -0.66029,0.08154 -0.75591,0.330729 -0.26344,0.686506 0.1058,1.253909 0.75591,1.161593 0.43728,-0.06209 0.59649,-0.261252 0.59649,-0.746161 z M 99.254365,74.124539 97.070583,71.929352 h -1.984375 -1.984375 l 2.215231,2.2268 2.215232,2.226799 -0.05489,2.28217 -0.05489,2.28217 1.934855,1.995942 1.934849,1.995942 0.073,-4.309725 0.073,-4.309725 z m 16.193075,4.563837 V 76.30603 l 2.17697,-2.188339 2.17697,-2.188339 h -1.973 -1.97301 l -2.18834,2.176971 -2.18834,2.176971 v 4.364845 4.364844 l 1.98438,-1.971131 1.98437,-1.971131 z M 87.877397,70.450991 c 0.110568,-0.773868 -0.606625,-1.343266 -1.137247,-0.902889 -0.416682,0.345816 -0.528183,1.103415 -0.209325,1.422272 0.37342,0.373421 1.268328,0.02825 1.346572,-0.519383 z m 38.642133,0.0376 c 0.12976,-0.673789 -0.70803,-1.307474 -1.19465,-0.903611 -0.43994,0.365113 -0.44987,0.818184 -0.0272,1.240842 0.45208,0.452079 1.10454,0.272003 1.22187,-0.337231 z M 98.989897,63.833705 c 0.110772,-0.771504 -0.607368,-1.339947 -1.137247,-0.900186 -0.481744,0.399812 -0.506586,0.842789 -0.07165,1.277722 0.467117,0.467118 1.116754,0.264238 1.2089,-0.377536 z m 16.291003,0.09843 c 0.40272,-0.638445 -0.25335,-1.340302 -0.91958,-0.983749 -0.575,0.307731 -0.6448,0.794209 -0.18057,1.258438 0.38592,0.385924 0.73907,0.29775 1.10015,-0.274689 z m -8.08892,-5.076507 c -0.0558,-0.390781 -0.27131,-0.552319 -0.73675,-0.552319 -0.81659,0 -1.06203,0.871913 -0.38483,1.36709 0.60166,0.439946 1.2351,-0.02022 1.12158,-0.814771 z"
       id="path1" /><text
       xml:space="preserve"
       style="font-style:normal;font-variant:normal;font-weight:600;font-stretch:normal;font-size:14.1111px;line-height:0;font-family:Inter;-inkscape-font-specification:'Inter Semi-Bold';text-align:start;letter-spacing:3.20146px;writing-mode:lr-tb;direction:ltr;text-anchor:start;fill:#000000;stroke-width:0.264583"
       x="60.061699"
       y="178.9126"
       id="text1"><tspan
         id="tspan1"
         x="60.061699"
         y="178.9126"
         style="font-style:normal;font-variant:normal;font-weight:600;font-stretch:normal;font-size:14.1111px;line-height:0;font-family:Inter;-inkscape-font-specification:'Inter Semi-Bold';letter-spacing:3.20146px;stroke-width:0.264583">MAPLESET</tspan></text><text
       xml:space="preserve"
       style="font-style:normal;font-variant:normal;font-weight:600;font-stretch:normal;font-size:4.93889px;line-height:0;font-family:Inter;-inkscape-font-specification:'Inter Semi-Bold';text-align:start;letter-spacing:1.04775px;writing-mode:lr-tb;direction:ltr;text-anchor:start;fill:#000000;stroke-width:0.264583"
       x="64.877007"
       y="190.61954"
       id="text2"><tspan
         id="tspan2"
         x="64.877007"
         y="190.61954"
         style="font-size:4.93889px;letter-spacing:1.04775px;stroke-width:0.264583">Pragmatic AI Applications</tspan></text></g></svg>
